<svg width="671" height="419" viewBox="0 0 671 419" fill="none" xmlns="http://www.w3.org/2000/svg">
<path d="M175.365 255.356C245.867 255.356 303.02 198.193 303.02 127.678C303.02 57.1634 245.867 0 175.365 0C104.864 0 47.711 57.1634 47.711 127.678C47.711 198.193 104.864 255.356 175.365 255.356Z" fill="#F2F2F2"/>
<path d="M0 30.6562C0 77.1105 29.1376 114.701 65.1461 114.701Z" fill="#2F2E41"/>
<path d="M65.1461 114.701C65.1461 67.7245 97.662 29.7118 137.845 29.7118Z" fill="#F80759"/>
<path d="M23.6037 34.8673C23.6037 78.9941 42.1842 114.701 65.1461 114.701Z" fill="#F80759"/>
<path d="M65.1461 114.701C65.1461 54.6755 102.729 6.10378 149.175 6.10378Z" fill="#2F2E41"/>
<path d="M51.441 115.293C51.441 115.293 60.6798 115.009 63.4642 113.026C66.2485 111.043 77.6757 108.675 78.3665 111.855C79.0572 115.036 92.2507 127.673 81.8201 127.757C71.3896 127.841 57.5842 126.132 54.8052 124.439C52.0262 122.746 51.441 115.293 51.441 115.293Z" fill="#A8A8A8"/>
<path opacity="0.2" d="M82.0063 126.65C71.5758 126.734 57.7704 125.025 54.9914 123.332C52.875 122.043 52.0317 117.416 51.7495 115.281C51.5541 115.29 51.4411 115.293 51.4411 115.293C51.4411 115.293 52.0263 122.746 54.8052 124.439C57.5842 126.132 71.3896 127.841 81.8202 127.757C84.8311 127.733 85.8711 126.661 85.814 125.075C85.3957 126.033 84.2473 126.632 82.0063 126.65Z" fill="black"/>
<path d="M119.03 269.706C180.925 269.706 231.102 262.879 231.102 254.457C231.102 246.035 180.925 239.208 119.03 239.208C57.1339 239.208 6.95753 246.035 6.95753 254.457C6.95753 262.879 57.1339 269.706 119.03 269.706Z" fill="#3F3D56"/>
<path opacity="0.1" d="M119.03 267.26C170.996 267.26 213.122 261.528 213.122 254.457C213.122 247.386 170.996 241.654 119.03 241.654C67.0637 241.654 24.937 247.386 24.937 254.457C24.937 261.528 67.0637 267.26 119.03 267.26Z" fill="black"/>
<path d="M501.394 419C595.065 419 671 408.668 671 395.922C671 383.176 595.065 372.844 501.394 372.844C407.722 372.844 331.787 383.176 331.787 395.922C331.787 408.668 407.722 419 501.394 419Z" fill="#3F3D56"/>
<path d="M186.153 400.794C242.422 400.794 288.037 394.587 288.037 386.931C288.037 379.274 242.422 373.068 186.153 373.068C129.884 373.068 84.2693 379.274 84.2693 386.931C84.2693 394.587 129.884 400.794 186.153 400.794Z" fill="#3F3D56"/>
<path d="M277.249 375.242C331.188 389.029 434.869 357.259 446.256 321.293" stroke="#2F2E41" stroke-width="2" stroke-miterlimit="10"/>
<path d="M185.554 155.252C185.554 155.252 263.465 133.672 268.259 203.206C273.054 272.74 204.133 292.521 258.071 306.308" stroke="#2F2E41" stroke-width="2" stroke-miterlimit="10"/>
<path d="M110.281 322.063C110.281 322.063 133.698 315.577 135.139 336.476C136.58 357.374 115.865 363.32 132.077 367.463" stroke="#2F2E41" stroke-width="2" stroke-miterlimit="10"/>
<path d="M466.69 337.622L461.969 367.77C461.969 367.77 438.727 380.12 455.069 380.483C471.412 380.846 548.403 380.483 548.403 380.483C548.403 380.483 563.292 380.483 539.687 367.407L534.965 335.805L466.69 337.622Z" fill="#2F2E41"/>
<path opacity="0.1" d="M451.782 380.156C455.493 376.853 461.969 373.411 461.969 373.411L466.69 343.263L534.965 343.327L539.687 373.048C545.191 376.097 548.601 378.435 550.596 380.228C553.628 379.536 556.941 376.965 539.687 367.407L534.965 335.805L466.69 337.622L461.969 367.77C461.969 367.77 442.439 378.149 451.782 380.156Z" fill="black"/>
<path d="M643.45 127.491H357.479C351.506 127.491 346.664 132.334 346.664 138.309V330.982C346.664 336.956 351.506 341.799 357.479 341.799H643.45C649.423 341.799 654.265 336.956 654.265 330.982V138.309C654.265 132.334 649.423 127.491 643.45 127.491Z" fill="#2F2E41"/>
<path d="M643.915 138.933H357.014V299.482H643.915V138.933Z" fill="#3F3D56"/>
<path d="M500.465 135.664C501.468 135.664 502.281 134.851 502.281 133.848C502.281 132.845 501.468 132.032 500.465 132.032C499.462 132.032 498.649 132.845 498.649 133.848C498.649 134.851 499.462 135.664 500.465 135.664Z" fill="#F2F2F2"/>
<path d="M654.265 312.195V330.982C654.265 332.402 653.986 333.809 653.442 335.121C652.899 336.434 652.102 337.626 651.098 338.631C650.094 339.635 648.901 340.432 647.589 340.976C646.277 341.519 644.871 341.799 643.45 341.799H357.479C356.059 341.799 354.653 341.519 353.34 340.976C352.028 340.432 350.836 339.635 349.832 338.631C348.827 337.626 348.031 336.434 347.487 335.121C346.944 333.809 346.664 332.402 346.664 330.982V312.195H654.265Z" fill="#2F2E41"/>
<path d="M580.724 400.098V403.73H385.341V400.824L385.61 400.098L390.426 387.021H576.729L580.724 400.098Z" fill="#2F2E41"/>
<path d="M655.914 396.542C655.558 398.064 654.214 399.669 651.178 401.187C640.283 406.636 618.13 399.734 618.13 399.734C618.13 399.734 601.062 396.829 601.062 389.201C601.541 388.872 602.041 388.575 602.558 388.311C607.138 385.887 622.326 379.906 649.255 388.564C651.239 389.187 653.011 390.348 654.374 391.919C655.465 393.197 656.321 394.817 655.914 396.542Z" fill="#2F2E41"/>
<path opacity="0.1" d="M655.914 396.542C642.579 401.652 630.692 402.034 618.493 393.559C612.341 389.288 606.752 388.231 602.558 388.311C607.138 385.887 622.326 379.906 649.255 388.564C651.239 389.187 653.011 390.348 654.374 391.919C655.465 393.197 656.321 394.817 655.914 396.542Z" fill="black"/>
<path d="M639.194 393.559C641.801 393.559 643.915 392.909 643.915 392.107C643.915 391.304 641.801 390.654 639.194 390.654C636.586 390.654 634.473 391.304 634.473 392.107C634.473 392.909 636.586 393.559 639.194 393.559Z" fill="#F2F2F2"/>
<path d="M500.465 333.989C504.276 333.989 507.365 330.899 507.365 327.088C507.365 323.276 504.276 320.186 500.465 320.186C496.654 320.186 493.565 323.276 493.565 327.088C493.565 330.899 496.654 333.989 500.465 333.989Z" fill="#F2F2F2"/>
<path opacity="0.1" d="M580.724 400.098V403.73H385.341V400.824L385.61 400.098H580.724Z" fill="black"/>
<path d="M189.749 95.309H65.0912V240.371H189.749V95.309Z" fill="#2F2E41"/>
<path d="M202.335 80.9227H52.5056V132.474H202.335V80.9227Z" fill="#3F3D56"/>
<path d="M202.335 142.064H52.5056V193.615H202.335V142.064Z" fill="#3F3D56"/>
<path d="M202.335 203.206H52.5056V254.757H202.335V203.206Z" fill="#3F3D56"/>
<path opacity="0.4" d="M172.369 89.9142H162.78V99.505H172.369V89.9142Z" fill="#F80759"/>
<path opacity="0.8" d="M186.153 89.9142H176.564V99.505H186.153V89.9142Z" fill="#F80759"/>
<path d="M199.937 89.9142H190.348V99.505H199.937V89.9142Z" fill="#F80759"/>
<path opacity="0.4" d="M172.369 150.456H162.78V160.047H172.369V150.456Z" fill="#F80759"/>
<path opacity="0.8" d="M186.153 150.456H176.564V160.047H186.153V150.456Z" fill="#F80759"/>
<path d="M199.937 150.456H190.348V160.047H199.937V150.456Z" fill="#F80759"/>
<path opacity="0.4" d="M172.369 210.999H162.78V220.589H172.369V210.999Z" fill="#F80759"/>
<path opacity="0.8" d="M186.153 210.999H176.564V220.589H186.153V210.999Z" fill="#F80759"/>
<path d="M199.937 210.999H190.348V220.589H199.937V210.999Z" fill="#F80759"/>
<path d="M189.749 369.847C215.897 369.847 237.095 348.645 237.095 322.492C237.095 296.339 215.897 275.137 189.749 275.137C163.601 275.137 142.403 296.339 142.403 322.492C142.403 348.645 163.601 369.847 189.749 369.847Z" fill="#2F2E41"/>
<path d="M182.557 359.657H168.174V385.432H182.557V359.657Z" fill="#2F2E41"/>
<path d="M211.324 359.657H196.941V385.432H211.324V359.657Z" fill="#2F2E41"/>
<path d="M180.16 390.227C186.78 390.227 192.146 388.215 192.146 385.732C192.146 383.249 186.78 381.236 180.16 381.236C173.54 381.236 168.174 383.249 168.174 385.732C168.174 388.215 173.54 390.227 180.16 390.227Z" fill="#2F2E41"/>
<path d="M208.927 389.628C215.547 389.628 220.913 387.615 220.913 385.132C220.913 382.649 215.547 380.637 208.927 380.637C202.307 380.637 196.941 382.649 196.941 385.132C196.941 387.615 202.307 389.628 208.927 389.628Z" fill="#2F2E41"/>
<path d="M190.948 326.688C199.884 326.688 207.129 319.442 207.129 310.504C207.129 301.565 199.884 294.319 190.948 294.319C182.011 294.319 174.766 301.565 174.766 310.504C174.766 319.442 182.011 326.688 190.948 326.688Z" fill="white"/>
<path d="M190.948 315.898C193.927 315.898 196.341 313.483 196.341 310.504C196.341 307.524 193.927 305.109 190.948 305.109C187.969 305.109 185.554 307.524 185.554 310.504C185.554 313.483 187.969 315.898 190.948 315.898Z" fill="#3F3D56"/>
<path d="M143.822 278.454C139.999 261.329 152.219 244.026 171.117 239.806C190.015 235.585 208.434 246.046 212.257 263.17C216.079 280.294 203.555 286.61 184.658 290.83C165.76 295.051 147.645 295.578 143.822 278.454Z" fill="#F80759"/>
<path d="M234.155 313.047C246.175 307.902 254.609 300.671 252.994 296.897C251.379 293.123 240.326 294.235 228.307 299.38C216.287 304.526 207.852 311.756 209.467 315.53C211.082 319.304 222.135 318.193 234.155 313.047Z" fill="#2F2E41"/>
<path d="M145.456 344.817C157.476 339.672 165.91 332.441 164.295 328.667C162.68 324.893 151.627 326.005 139.608 331.15C127.588 336.295 119.154 343.526 120.769 347.3C122.384 351.074 133.437 349.962 145.456 344.817Z" fill="#2F2E41"/>
<path d="M166.376 346.788C166.376 342.153 178.307 333.001 191.547 333.001C204.787 333.001 217.318 341.554 217.318 346.188C217.318 350.823 204.787 349.785 191.547 349.785C178.307 349.785 166.376 351.423 166.376 346.788Z" fill="white"/>
</svg>
