<svg width="100" height="100" viewBox="0 0 100 100" fill="none" xmlns="http://www.w3.org/2000/svg">
<path fill-rule="evenodd" clip-rule="evenodd" d="M70.5923 0.300595C75.9127 0.543651 79.5466 1.3879 82.7262 2.62401C86.0129 3.90079 88.8006 5.61012 91.5794 8.38889C94.3581 11.1677 96.0675 13.9554 97.3442 17.2421C98.5804 20.4216 99.4256 24.0556 99.6677 29.376C99.9107 34.7073 99.9683 36.4087 99.9683 49.9841C99.9683 63.5585 99.9107 65.2609 99.6677 70.5923C99.4256 75.9127 98.5804 79.5466 97.3442 82.7252C96.0675 86.0129 94.3581 88.7996 91.5794 91.5784C88.8006 94.3581 86.0129 96.0665 82.7262 97.3442C79.5466 98.5794 75.9127 99.4246 70.5923 99.6677C65.2609 99.9107 63.5595 99.9683 49.9841 99.9683C36.4097 99.9683 34.7073 99.9107 29.376 99.6677C24.0556 99.4246 20.4226 98.5794 17.2421 97.3442C13.9563 96.0665 11.1687 94.3581 8.38988 91.5784C5.61012 88.7996 3.90179 86.0119 2.62401 82.7252C1.3879 79.5466 0.543651 75.9127 0.300595 70.5923C0.0575397 65.2609 0 63.5585 0 49.9841C0 36.4087 0.0575397 34.7073 0.300595 29.376C0.543651 24.0556 1.3879 20.4216 2.62401 17.2421C3.90179 13.9554 5.61012 11.1677 8.38988 8.38889C11.1687 5.61012 13.9563 3.90079 17.2421 2.62401C20.4226 1.3879 24.0556 0.543651 29.376 0.300595C34.7073 0.0575397 36.4097 0 49.9841 0C63.5595 0 65.2609 0.0575397 70.5923 0.300595ZM29.7867 9.29762C24.9127 9.51984 22.2659 10.3343 20.505 11.0188C18.1716 11.9256 16.5069 13.0079 14.7579 14.7579C13.0089 16.5069 11.9256 18.1716 11.0188 20.505C10.3343 22.2659 9.51984 24.9127 9.29762 29.7857C9.05754 35.0565 9.00595 36.6379 9.00595 49.9841C9.00595 63.3304 9.05754 64.9117 9.29762 70.1815C9.51984 75.0556 10.3343 77.7024 11.0188 79.4633C11.9256 81.7966 13.0089 83.4613 14.7579 85.2103C16.5069 86.9593 18.1716 88.0427 20.505 88.9494C22.2659 89.6339 24.9127 90.4484 29.7867 90.6706C35.0565 90.9107 36.6369 90.9623 49.9841 90.9623C63.3313 90.9623 64.9127 90.9107 70.1815 90.6706C75.0556 90.4484 77.7024 89.6339 79.4633 88.9494C81.7966 88.0427 83.4623 86.9593 85.2113 85.2103C86.9593 83.4613 88.0427 81.7966 88.9494 79.4633C89.6339 77.7024 90.4484 75.0556 90.6706 70.1815C90.9117 64.9117 90.9623 63.3304 90.9623 49.9841C90.9623 36.6379 90.9117 35.0565 90.6706 29.7857C90.4484 24.9127 89.6339 22.2659 88.9494 20.505C88.0427 18.1716 86.9593 16.5069 85.2113 14.7569C83.4623 13.0079 81.7966 11.9256 79.4633 11.0188C77.7024 10.3343 75.0556 9.51984 70.1815 9.29762C64.9117 9.05655 63.3304 9.00595 49.9841 9.00595C36.6379 9.00595 35.0575 9.05655 29.7867 9.29762Z" fill="black"/>
<path fill-rule="evenodd" clip-rule="evenodd" d="M75.6517 49.984C75.6517 64.1596 64.1597 75.6517 49.9841 75.6517C35.8085 75.6517 24.3164 64.1596 24.3164 49.984C24.3164 35.8084 35.8085 24.3163 49.9841 24.3163C64.1597 24.3163 75.6517 35.8084 75.6517 49.984ZM66.6458 49.984C66.6458 40.7816 59.1864 33.3223 49.9841 33.3223C40.7827 33.3223 33.3224 40.7816 33.3224 49.984C33.3224 59.1854 40.7827 66.6457 49.9841 66.6457C59.1864 66.6457 66.6458 59.1854 66.6458 49.984ZM82.6636 23.3025C82.6636 26.615 79.9791 29.3005 76.6656 29.3005C73.3531 29.3005 70.6676 26.615 70.6676 23.3025C70.6676 19.99 73.3531 17.3044 76.6656 17.3044C79.9791 17.3044 82.6636 19.99 82.6636 23.3025Z" fill="black"/>
</svg>
