<svg width="100" height="100" viewBox="0 0 100 100" fill="none" xmlns="http://www.w3.org/2000/svg">
<path fill-rule="evenodd" clip-rule="evenodd" d="M100 50C100 77.6138 77.6138 100 50 100C22.3862 100 0 77.6138 0 50C0 22.3862 22.3862 0 50 0C77.6138 0 100 22.3862 100 50ZM81.125 34.2788C78.965 35.2388 76.6413 35.885 74.2025 36.1763C76.6912 34.685 78.6025 32.3237 79.5025 29.5088C77.1738 30.89 74.595 31.8938 71.85 32.435C69.65 30.0925 66.5175 28.6262 63.0513 28.6262C56.3937 28.6262 50.9963 34.025 50.9963 40.6787C50.9963 41.625 51.1025 42.545 51.3088 43.4275C41.2913 42.9238 32.4088 38.1275 26.4638 30.8337C25.4275 32.615 24.8312 34.685 24.8312 36.8925C24.8312 41.0738 26.96 44.7663 30.195 46.925C28.2188 46.865 26.3612 46.3213 24.7362 45.4175C24.7337 45.4675 24.7337 45.5187 24.7337 45.5713C24.7337 51.41 28.8888 56.2825 34.4038 57.3887C33.3913 57.6637 32.3262 57.8125 31.2262 57.8125C30.45 57.8125 29.695 57.735 28.96 57.595C30.495 62.3838 34.9437 65.8687 40.2212 65.9662C36.095 69.2 30.8975 71.1263 25.25 71.1263C24.2775 71.1263 23.3188 71.07 22.375 70.9587C27.71 74.3775 34.0438 76.3737 40.8512 76.3737C63.0225 76.3737 75.1462 58.005 75.1462 42.0788C75.1462 41.5563 75.1363 41.0375 75.1113 40.52C77.465 38.8188 79.5113 36.6963 81.125 34.2788Z" fill="black"/>
</svg>
