<svg width="133" height="117" viewBox="0 0 133 117" fill="none" xmlns="http://www.w3.org/2000/svg">
<path d="M57.68 50.992C57.68 55.0453 59.3227 57.072 62.608 57.072C65.68 57.072 69.4773 55.2587 74 51.632C78.9493 47.7067 82.3413 43.568 84.176 39.216C86.2667 34.3093 87.312 30.128 87.312 26.672C87.312 23.216 86.608 20.6133 85.2 18.864C83.8347 17.1147 81.936 16.24 79.504 16.24C78.9493 16.24 78.3733 16.2827 77.776 16.368C76.752 16.624 75.984 16.752 75.472 16.752C75.0027 16.752 74.768 16.624 74.768 16.368C74.768 15.984 75.152 15.6213 75.92 15.28C76.7307 14.9387 77.328 14.768 77.712 14.768C78.1387 14.768 78.48 14.768 78.736 14.768C78.992 14.768 79.2907 14.768 79.632 14.768C82.064 14.768 84.2827 15.728 86.288 17.648C88.336 19.568 89.6587 22.384 90.256 26.096C90.384 26.992 90.448 27.9093 90.448 28.848C90.448 32.0053 89.7013 35.5893 88.208 39.6C86.1173 44.8907 82.512 49.392 77.392 53.104C72.3147 56.816 67.6427 58.672 63.376 58.672C58.9387 58.672 56.208 56.624 55.184 52.528C54.8853 51.4613 54.736 50.0107 54.736 48.176C54.736 46.3413 55.184 43.952 56.08 41.008C53.776 44.848 50.7893 49.008 47.12 53.488C45.1147 55.8773 43.0667 57.8613 40.976 59.44C38.7573 61.104 36.88 61.936 35.344 61.936C32.3147 61.936 30.8 60.1013 30.8 56.432C30.8 52.1227 33.5947 43.3333 39.184 30.064C42.6827 21.616 44.432 15.28 44.432 11.056C44.432 8.32533 43.6 6.448 41.936 5.424C40.3147 4.35733 38.3733 3.824 36.112 3.824C35.1307 3.824 34.1067 3.93066 33.04 4.144C25.488 5.68 18.7893 9.75467 12.944 16.368C10.0427 19.696 8.03733 22.896 6.928 25.968C5.81867 28.9973 5.17867 31.2587 5.008 32.752C4.88 34.2027 4.816 35.4187 4.816 36.4C4.816 37.3387 4.98667 38.4267 5.328 39.664C5.712 40.9013 6.352 42.0533 7.248 43.12C8.912 45.04 11.2373 46 14.224 46C19.1733 46 23.0987 43.4187 26 38.256C27.4933 35.6107 28.24 33.2213 28.24 31.088C28.24 27.5893 26.6827 25.84 23.568 25.84C23.056 25.84 22.416 25.904 21.648 26.032C20.88 26.16 20.5173 26.0747 20.56 25.776C20.6027 25.4773 21.1787 25.1573 22.288 24.816C23.3973 24.4747 24.5067 24.304 25.616 24.304C27.8347 24.304 29.456 25.1573 30.48 26.864C31.12 27.9307 31.44 29.1893 31.44 30.64C31.44 32.0907 31.0347 33.776 30.224 35.696C28.048 40.688 24.144 44.3573 18.512 46.704C17.0187 47.344 15.632 47.664 14.352 47.664C10.1707 47.664 6.84267 46.1707 4.368 43.184C2.61867 41.136 1.50933 38.4907 1.04 35.248C0.954667 34.608 0.912 33.9467 0.912 33.264C0.912 30.5333 1.59467 27.5893 2.96 24.432C4.368 21.232 6.26667 18.2667 8.656 15.536C11.0453 12.8053 13.648 10.5227 16.464 8.688C19.28 6.85333 22.2453 5.31733 25.36 4.08C28.6027 2.84267 31.6107 2.224 34.384 2.224C37.1573 2.224 39.6747 2.65067 41.936 3.504C46.032 5.296 48.08 8.73066 48.08 13.808C48.08 17.9893 46.6507 23.3227 43.792 29.808C41.8293 34.2027 39.952 38.9173 38.16 43.952C35.6 51.12 34.32 55.792 34.32 57.968C34.32 59.504 34.8533 60.272 35.92 60.272C36.4747 60.272 37.136 60.016 37.904 59.504C40.208 58.1387 42.7253 55.5573 45.456 51.76C48.1867 47.9627 51.024 43.5467 53.968 38.512C56.912 33.4773 59.0027 30.1067 60.24 28.4C61.4773 26.6933 62.544 25.84 63.44 25.84C63.6533 25.84 63.8667 25.8827 64.08 25.968C64.6347 26.2667 64.912 26.8427 64.912 27.696C64.912 28.5493 64.784 29.3173 64.528 30C64.3147 30.6827 63.2267 33.4133 61.264 38.192C59.3013 42.928 58.2133 46.064 58 47.6C57.7867 49.0933 57.68 50.224 57.68 50.992Z" fill="#F80759"/>
<path d="M130.664 47.544C130.664 46.0507 129.981 44.6427 128.616 43.32C126.653 41.4427 123.944 40.504 120.488 40.504C117.459 40.504 114.109 41.1653 110.44 42.488C108.52 43.1707 106.856 44.1093 105.448 45.304C103.272 47.1813 102.184 49.0587 102.184 50.936C102.184 53.4533 103.784 55.7147 106.984 57.72C108.179 58.4453 110.568 59.64 114.152 61.304C117.779 62.9253 120.424 64.248 122.088 65.272C124.605 66.808 126.333 68.4507 127.272 70.2C128.253 71.9493 128.744 73.5707 128.744 75.064C128.744 77.1973 128.04 79.3733 126.632 81.592C124.157 85.56 120.531 88.9733 115.752 91.832C110.248 95.16 103.613 96.824 95.848 96.824C88.3813 96.824 82.4507 94.9253 78.056 91.128C74.6427 88.2267 72.936 84.4933 72.936 79.928C72.936 77.0267 73.9813 73.8267 76.072 70.328C78.2053 66.8293 80.808 64.3547 83.88 62.904C84.52 62.648 84.9893 62.5627 85.288 62.648C85.6293 62.7333 85.3733 63.1387 84.52 63.864C82.6853 65.3147 81.2133 66.9147 80.104 68.664C77.7147 72.4187 76.52 76.4933 76.52 80.888C76.52 83.7893 77.3307 86.328 78.952 88.504C81.8533 92.3867 86.888 94.584 94.056 95.096C94.8667 95.1813 96.0613 95.224 97.64 95.224C99.2613 95.224 101.437 94.9253 104.168 94.328C106.941 93.7733 109.608 92.8347 112.168 91.512C117.672 88.6107 121.235 84.856 122.856 80.248C123.368 78.8827 123.624 77.56 123.624 76.28C123.624 73.3787 122.323 70.8187 119.72 68.6C118.312 67.4907 115.432 66.0187 111.08 64.184C106.771 62.3067 103.869 60.8773 102.376 59.896C99.0907 57.6773 97.448 55.0533 97.448 52.024C97.448 49.3787 98.92 46.7973 101.864 44.28C106.088 40.696 112.061 38.904 119.784 38.904C123.411 38.904 126.355 39.4587 128.616 40.568C130.92 41.6347 132.328 43.256 132.84 45.432C132.925 45.8587 132.968 46.2853 132.968 46.712C132.968 48.376 132.2 49.8693 130.664 51.192C129.597 52.0453 128.168 52.728 126.376 53.24C125.608 53.4533 125.181 53.368 125.096 52.984C125.011 52.4293 125.544 52.088 126.696 51.96C128.744 51.704 130.003 50.68 130.472 48.888C130.6 48.4187 130.664 47.9707 130.664 47.544Z" fill="#F80759"/>
</svg>
